<svg width="24" height="25" viewBox="0 0 24 25" fill="none" xmlns="http://www.w3.org/2000/svg">
<rect y="0.5" width="24" height="24" rx="12" fill="#FFADB5"/>
<path d="M17.007 6.5H6.32699C6.15195 6.5 5.98408 6.56954 5.8603 6.69331C5.73653 6.81708 5.66699 6.98496 5.66699 7.16V17.84C5.66699 17.9267 5.68406 18.0125 5.71723 18.0926C5.7504 18.1726 5.79902 18.2454 5.8603 18.3067C5.92159 18.368 5.99435 18.4166 6.07442 18.4498C6.1545 18.4829 6.24032 18.5 6.32699 18.5H12.075V13.85H10.515V12.05H12.075V10.7C12.0427 10.3831 12.0801 10.0629 12.1846 9.76192C12.2891 9.46097 12.4583 9.18653 12.6801 8.95785C12.9019 8.72917 13.1711 8.55178 13.4687 8.43814C13.7663 8.3245 14.0852 8.27735 14.403 8.3C14.87 8.29713 15.3368 8.32117 15.801 8.372V9.992H14.847C14.091 9.992 13.947 10.352 13.947 10.874V12.032H15.747L15.513 13.832H13.947V18.5H17.007C17.0937 18.5 17.1795 18.4829 17.2596 18.4498C17.3396 18.4166 17.4124 18.368 17.4737 18.3067C17.535 18.2454 17.5836 18.1726 17.6168 18.0926C17.6499 18.0125 17.667 17.9267 17.667 17.84V7.16C17.667 7.07333 17.6499 6.9875 17.6168 6.90743C17.5836 6.82735 17.535 6.7546 17.4737 6.69331C17.4124 6.63202 17.3396 6.58341 17.2596 6.55024C17.1795 6.51707 17.0937 6.5 17.007 6.5Z" fill="#40147E"/>
</svg>
