<svg width="24" height="25" viewBox="0 0 24 25" fill="none" xmlns="http://www.w3.org/2000/svg">
<rect y="0.5" width="24" height="24" rx="12" fill="#FFADB5"/>
<g clip-path="url(#clip0_439_261)">
<path d="M12.003 8.90635C10.0155 8.90635 8.4124 10.5095 8.4124 12.497C8.4124 14.4845 10.0155 16.0876 12.003 16.0876C13.9905 16.0876 15.5937 14.4845 15.5937 12.497C15.5937 10.5095 13.9905 8.90635 12.003 8.90635ZM12.003 14.8313C10.7187 14.8313 9.66865 13.7845 9.66865 12.497C9.66865 11.2095 10.7155 10.1626 12.003 10.1626C13.2905 10.1626 14.3374 11.2095 14.3374 12.497C14.3374 13.7845 13.2874 14.8313 12.003 14.8313ZM16.578 8.75947C16.578 9.2251 16.203 9.59697 15.7405 9.59697C15.2749 9.59697 14.903 9.22197 14.903 8.75947C14.903 8.29697 15.278 7.92197 15.7405 7.92197C16.203 7.92197 16.578 8.29697 16.578 8.75947ZM18.9562 9.60947C18.903 8.4876 18.6468 7.49385 17.8249 6.6751C17.0062 5.85635 16.0124 5.6001 14.8905 5.54385C13.7343 5.47822 10.2687 5.47822 9.1124 5.54385C7.99365 5.59697 6.9999 5.85322 6.17803 6.67197C5.35615 7.49072 5.10303 8.48447 5.04678 9.60635C4.98115 10.7626 4.98115 14.2282 5.04678 15.3845C5.0999 16.5063 5.35615 17.5001 6.17803 18.3188C6.9999 19.1376 7.99053 19.3938 9.1124 19.4501C10.2687 19.5157 13.7343 19.5157 14.8905 19.4501C16.0124 19.397 17.0062 19.1407 17.8249 18.3188C18.6437 17.5001 18.8999 16.5063 18.9562 15.3845C19.0218 14.2282 19.0218 10.7657 18.9562 9.60947ZM17.4624 16.6251C17.2187 17.2376 16.7468 17.7095 16.1312 17.9563C15.2093 18.322 13.0218 18.2376 12.003 18.2376C10.9843 18.2376 8.79365 18.3188 7.8749 17.9563C7.2624 17.7126 6.79053 17.2407 6.54365 16.6251C6.17803 15.7032 6.2624 13.5157 6.2624 12.497C6.2624 11.4782 6.18115 9.2876 6.54365 8.36885C6.7874 7.75635 7.25928 7.28447 7.8749 7.0376C8.79678 6.67197 10.9843 6.75635 12.003 6.75635C13.0218 6.75635 15.2124 6.6751 16.1312 7.0376C16.7437 7.28135 17.2155 7.75322 17.4624 8.36885C17.828 9.29072 17.7437 11.4782 17.7437 12.497C17.7437 13.5157 17.828 15.7063 17.4624 16.6251Z" fill="#40147E"/>
</g>
<defs>
<clipPath id="clip0_439_261">
<rect width="14" height="16" fill="white" transform="translate(5 4.5)"/>
</clipPath>
</defs>
</svg>
