<?xml version="1.0" encoding="utf-8"?>
<!-- Generator: Adobe Illustrator 26.0.1, SVG Export Plug-In . SVG Version: 6.00 Build 0)  -->
<svg version="1.1" id="Layer_1" xmlns="http://www.w3.org/2000/svg" xmlns:xlink="http://www.w3.org/1999/xlink" x="0px" y="0px"
	 viewBox="0 0 890.33 530.82" style="enable-background:new 0 0 890.33 530.82;" xml:space="preserve">
<style type="text/css">
	.st0{fill:#FFFFFF;}
</style>
<circle class="st0" cx="51.86" cy="470.11" r="27.09"/>
<circle class="st0" cx="134.01" cy="293.44" r="27.09"/>
<circle class="st0" cx="134.01" cy="57.57" r="27.09"/>
<g>
	<g>
		<path class="st0" d="M249.74,26.17c28.84,0,49.83,20.56,49.83,49.26s-20.99,49.26-49.83,49.26c-28.7,0-49.69-20.56-49.69-49.26
			S221.04,26.17,249.74,26.17z M249.74,44.16c-17.56,0-28.84,13.42-28.84,31.27c0,17.71,11.28,31.27,28.84,31.27
			s28.99-13.56,28.99-31.27C278.72,57.59,267.3,44.16,249.74,44.16z"/>
		<path class="st0" d="M316.11,97.31c1.18-1.64,3.5-1.9,5.02-0.57c6.67,5.79,16.07,10.25,27.54,10.25
			c11.14,0,16.56-5.28,16.56-10.71c0-7.14-8.28-9.57-19.28-12.14c-15.56-3.57-35.55-7.85-35.55-29.13c0-15.85,13.71-28.7,36.13-28.7
			c13.79,0,25.45,3.79,34.54,11.06c1.47,1.18,1.76,3.3,0.62,4.8l-7.15,9.41c-1.14,1.5-3.28,1.81-4.78,0.66
			c-7.33-5.62-16.39-8.23-24.66-8.23c-9.14,0-14,4-14,9.71c0,6.43,8,8.43,18.99,11c15.71,3.57,35.7,8.28,35.7,29.42
			c0,17.42-12.42,30.56-38.12,30.56c-16.75,0-29.19-5.16-38.08-12.95c-1.35-1.18-1.61-3.19-0.56-4.64L316.11,97.31z"/>
		<path class="st0" d="M401.75,27.74h15.77c1.25,0,2.25,1.01,2.25,2.25v72.88c0,1.25,1.01,2.25,2.25,2.25h35.76
			c1.24,0,2.25,1.01,2.25,2.25v13.34c0,1.25-1.01,2.25-2.25,2.25h-56.03c-1.25,0-2.25-1.01-2.25-2.25V30
			C399.49,28.75,400.5,27.74,401.75,27.74z"/>
		<path class="st0" d="M515.43,26.17c28.84,0,49.83,20.56,49.83,49.26s-20.99,49.26-49.83,49.26c-28.7,0-49.69-20.56-49.69-49.26
			S486.73,26.17,515.43,26.17z M515.43,44.16c-17.56,0-28.84,13.42-28.84,31.27c0,17.71,11.28,31.27,28.84,31.27
			c17.56,0,28.99-13.56,28.99-31.27C544.42,57.59,532.99,44.16,515.43,44.16z"/>
	</g>
	<g>
		<path class="st0" d="M208.65,154.96c0-1.47,1.19-2.67,2.67-2.67h41.88c20.7,0,31.99,13.99,31.99,30.7
			c0,16.56-11.42,30.41-31.99,30.41h-21.61c-1.47,0-2.67,1.19-2.67,2.67v28.79c0,1.47-1.19,2.67-2.67,2.67h-14.94
			c-1.47,0-2.67-1.19-2.67-2.67V154.96z M250.49,169.71h-18.89c-1.47,0-2.67,1.19-2.67,2.67v20.94c0,1.47,1.19,2.67,2.67,2.67
			l18.92,0c7.99,0,14.73-6.74,13.89-14.69C263.66,174.31,257.94,169.71,250.49,169.71z"/>
		<path class="st0" d="M331.35,213.41h-10.79c-1.41,0-2.55,1.14-2.55,2.55v29.03c0,1.41-1.14,2.55-2.55,2.55h-15.17
			c-1.41,0-2.55-1.14-2.55-2.55v-90.14c0-1.41,1.14-2.55,2.55-2.55h42c19.85,0,31.99,12.99,31.99,30.7
			c0,15.22-8.62,24.03-17.86,27.38c-1.51,0.55-2.15,2.3-1.34,3.68l17.5,29.63c1,1.7-0.22,3.85-2.2,3.85h-17.3
			c-0.93,0-1.79-0.51-2.24-1.32l-17.25-31.48C333.14,213.92,332.28,213.41,331.35,213.41z M339.29,169.71h-18.72
			c-1.41,0-2.55,1.14-2.55,2.55v21.17c0,1.41,1.14,2.55,2.55,2.55h18.72c8.14,0,14.28-5.14,14.28-13.14
			C353.57,174.86,347.43,169.71,339.29,169.71z"/>
		<path class="st0" d="M393.34,152.3h12.66c2.1,0,3.81,1.7,3.81,3.81v87.63c0,2.1-1.7,3.81-3.81,3.81h-12.66
			c-2.1,0-3.81-1.7-3.81-3.81V156.1C389.54,154,391.24,152.3,393.34,152.3z"/>
		<path class="st0" d="M428.65,156.12c0-2.11,1.71-3.82,3.82-3.82h33.73c29.84,0,50.55,18.99,50.55,47.69s-20.7,47.55-50.55,47.55
			h-33.73c-2.11,0-3.82-1.71-3.82-3.82V156.12z M466.21,229.69c18.85,0,29.84-13.56,29.84-29.7c0-16.85-10.28-29.84-29.84-29.84
			h-13.46c-2.11,0-3.82,1.71-3.82,3.82v51.9c0,2.11,1.71,3.82,3.82,3.82H466.21z"/>
		<path class="st0" d="M535.45,152.3h58.82c2.37,0,4.29,1.92,4.29,4.29v8.84c0,2.37-1.92,4.29-4.29,4.29h-38.55
			c-2.37,0-4.29,1.92-4.29,4.29v12.13c0,2.37,1.92,4.29,4.29,4.29h37.55c2.37,0,4.29,1.92,4.29,4.29v8.85
			c0,2.37-1.92,4.29-4.29,4.29h-37.55c-2.37,0-4.29,1.92-4.29,4.29v13.56c0,2.37,1.92,4.29,4.29,4.29h38.55
			c2.37,0,4.29,1.92,4.29,4.29v8.99c0,2.37-1.92,4.29-4.29,4.29h-58.82c-2.37,0-4.29-1.92-4.29-4.29v-86.67
			C531.16,154.21,533.08,152.3,535.45,152.3z"/>
	</g>
	<g>
		<path class="st0" d="M201.2,279.44c0-1.59,1.29-2.88,2.88-2.88h47.24c18.13,0,27.42,11.57,27.42,24.27
			c0,8.96-4.14,15.69-9.99,19.29c-1.79,1.1-1.72,3.81,0.11,4.84c6.88,3.88,11.74,11.87,11.74,21.13c0,14.28-9.57,25.7-27.7,25.7
			h-48.81c-1.59,0-2.88-1.29-2.88-2.88V279.44z M246.89,314.83c6.85,0,11.14-4.43,11.14-10.57c0-5.85-4.28-10.42-11.14-10.42h-22.54
			c-1.59,0-2.88,1.29-2.88,2.88v15.23c0,1.59,1.29,2.88,2.88,2.88H246.89z M247.61,354.53c7.71,0,12.28-4.43,12.28-11.28
			c0-6-4.28-11.14-12.28-11.14h-23.25c-1.59,0-2.88,1.29-2.88,2.88v16.66c0,1.59,1.29,2.88,2.88,2.88H247.61z"/>
		<path class="st0" d="M299.94,276.56h12.39c2.26,0,4.08,1.83,4.08,4.08v52.46c0,13.28,7.28,22.42,22.13,22.42
			c14.56,0,21.85-9.14,21.85-22.42v-52.46c0-2.26,1.83-4.08,4.08-4.08h12.39c2.26,0,4.08,1.83,4.08,4.08v53.03
			c0,23.7-13.57,39.84-42.41,39.84c-29.13,0-42.69-16.28-42.69-39.7v-53.18C295.86,278.39,297.69,276.56,299.94,276.56z"/>
		<path class="st0" d="M401.8,346.5c1.33-1.84,3.92-2.11,5.65-0.64c6.65,5.64,15.92,9.95,27.19,9.95c11.14,0,16.56-5.28,16.56-10.71
			c0-7.14-8.28-9.57-19.28-12.14c-15.56-3.57-35.55-7.85-35.55-29.13c0-15.85,13.71-28.7,36.13-28.7c13.63,0,25.17,3.7,34.21,10.8
			c1.67,1.31,1.98,3.71,0.7,5.4l-6.64,8.74c-1.28,1.69-3.67,2.01-5.37,0.74c-7.27-5.44-16.19-7.97-24.33-7.97c-9.14,0-14,4-14,9.71
			c0,6.43,8,8.43,18.99,11c15.71,3.57,35.7,8.28,35.7,29.42c0,17.42-12.42,30.56-38.12,30.56c-16.57,0-28.92-5.05-37.78-12.69
			c-1.53-1.32-1.81-3.58-0.63-5.22L401.8,346.5z"/>
		<path class="st0" d="M488.59,276.56h14c1.73,0,3.14,1.41,3.14,3.14v88.96c0,1.73-1.41,3.14-3.14,3.14h-14
			c-1.73,0-3.14-1.41-3.14-3.14V279.7C485.45,277.97,486.86,276.56,488.59,276.56z"/>
		<path class="st0" d="M544.85,307.83v61.11c0,1.58-1.28,2.86-2.86,2.86h-14.55c-1.58,0-2.86-1.28-2.86-2.86v-89.52
			c0-1.58,1.28-2.86,2.86-2.86h16.51c0.92,0,1.79,0.45,2.33,1.2l43.27,60.49v-58.82c0-1.58,1.28-2.86,2.86-2.86h14.55
			c1.58,0,2.86,1.28,2.86,2.86v89.52c0,1.58-1.28,2.86-2.86,2.86h-15.22c-0.93,0-1.8-0.45-2.33-1.21L544.85,307.83z"/>
		<path class="st0" d="M631.09,276.56h62.52c1.35,0,2.44,1.09,2.44,2.44v12.54c0,1.35-1.09,2.44-2.44,2.44h-42.24
			c-1.35,0-2.44,1.09-2.44,2.44v15.83c0,1.35,1.09,2.44,2.44,2.44h41.24c1.35,0,2.44,1.09,2.44,2.44v12.54
			c0,1.35-1.09,2.44-2.44,2.44h-41.24c-1.35,0-2.44,1.09-2.44,2.44v17.25c0,1.35,1.09,2.44,2.44,2.44h42.24
			c1.35,0,2.44,1.09,2.44,2.44v12.68c0,1.35-1.09,2.44-2.44,2.44h-62.52c-1.35,0-2.44-1.09-2.44-2.44V279
			C628.65,277.65,629.74,276.56,631.09,276.56z"/>
		<path class="st0" d="M713.23,347.42c1.62-2.24,4.82-2.76,6.97-1.02c6.59,5.37,15.63,9.4,26.53,9.4c11.14,0,16.56-5.28,16.56-10.71
			c0-7.14-8.28-9.57-19.28-12.14c-15.56-3.57-35.55-7.85-35.55-29.13c0-15.85,13.71-28.7,36.13-28.7c13.22,0,24.47,3.48,33.39,10.17
			c2.15,1.61,2.52,4.71,0.89,6.86l-5.38,7.09c-1.63,2.14-4.64,2.51-6.84,0.96c-7.11-5.02-15.66-7.36-23.49-7.36
			c-9.14,0-14,4-14,9.71c0,6.43,8,8.43,18.99,11c15.71,3.57,35.7,8.28,35.7,29.42c0,17.42-12.42,30.56-38.12,30.56
			c-16.11,0-28.23-4.77-37.04-12.06c-1.98-1.64-2.3-4.55-0.8-6.64L713.23,347.42z"/>
		<path class="st0" d="M799.12,347.11c1.56-2.16,4.59-2.46,6.66-0.77c6.6,5.4,15.67,9.47,26.61,9.47c11.14,0,16.56-5.28,16.56-10.71
			c0-7.14-8.28-9.57-19.28-12.14c-15.56-3.57-35.55-7.85-35.55-29.13c0-15.85,13.71-28.7,36.13-28.7c13.33,0,24.67,3.54,33.62,10.34
			c2.02,1.53,2.37,4.44,0.84,6.45l-5.73,7.55c-1.53,2.02-4.37,2.37-6.43,0.89c-7.16-5.14-15.8-7.53-23.73-7.53c-9.14,0-14,4-14,9.71
			c0,6.43,8,8.43,18.99,11c15.71,3.57,35.7,8.28,35.7,29.42c0,17.42-12.42,30.56-38.12,30.56c-16.24,0-28.42-4.85-37.25-12.24
			c-1.85-1.55-2.16-4.28-0.75-6.24L799.12,347.11z"/>
	</g>
	<g>
		<path class="st0" d="M205.15,402.69h59.33c2.23,0,4.04,1.81,4.04,4.03v9.35c0,2.23-1.81,4.04-4.04,4.04h-39.05
			c-2.23,0-4.03,1.81-4.03,4.04v12.64c0,2.23,1.81,4.04,4.03,4.04h38.05c2.23,0,4.03,1.81,4.03,4.04v9.35
			c0,2.23-1.81,4.04-4.03,4.04h-38.05c-2.23,0-4.03,1.81-4.03,4.04v31.63c0,2.23-1.81,4.04-4.04,4.04h-12.21
			c-2.23,0-4.04-1.81-4.04-4.04v-87.17C201.11,404.49,202.92,402.69,205.15,402.69z"/>
		<path class="st0" d="M327.76,401.11c28.84,0,49.83,20.56,49.83,49.26s-20.99,49.26-49.83,49.26c-28.7,0-49.69-20.56-49.69-49.26
			S299.06,401.11,327.76,401.11z M327.76,419.11c-17.56,0-28.84,13.42-28.84,31.27c0,17.71,11.28,31.27,28.84,31.27
			c17.56,0,28.99-13.56,28.99-31.27C356.74,432.53,345.32,419.11,327.76,419.11z"/>
		<path class="st0" d="M425,463.8h-9.53c-1.84,0-3.34,1.49-3.34,3.34v27.45c0,1.84-1.49,3.34-3.34,3.34h-13.6
			c-1.84,0-3.34-1.49-3.34-3.34v-88.56c0-1.84,1.49-3.34,3.34-3.34h41.21c19.85,0,31.99,12.99,31.99,30.7
			c0,14.74-8.09,23.47-17,27.05c-1.93,0.77-2.79,3.01-1.73,4.8l16.33,27.65c1.31,2.23-0.29,5.04-2.87,5.04h-15.45
			c-1.22,0-2.34-0.66-2.93-1.73l-16.81-30.66C427.35,464.46,426.22,463.8,425,463.8z M433.41,420.1h-17.94
			c-1.84,0-3.34,1.49-3.34,3.34v19.6c0,1.84,1.49,3.34,3.34,3.34h17.94c8.14,0,14.28-5.14,14.28-13.14
			C447.69,425.25,441.55,420.1,433.41,420.1z"/>
		<path class="st0" d="M487.7,402.69h12.47c2.23,0,4.05,1.81,4.05,4.05v52.5c0,13.28,7.28,22.42,22.13,22.42
			c14.56,0,21.85-9.14,21.85-22.42v-52.5c0-2.23,1.81-4.05,4.05-4.05h12.47c2.23,0,4.05,1.81,4.05,4.05v53.07
			c0,23.7-13.57,39.84-42.41,39.84c-29.13,0-42.69-16.28-42.69-39.7v-53.21C483.65,404.5,485.47,402.69,487.7,402.69z"/>
		<path class="st0" d="M670.41,429.39l-25.9,66.13c-0.57,1.45-1.97,2.41-3.52,2.41h-3.69c-1.56,0-2.96-0.95-3.52-2.41l-25.9-66.13
			v64.75c0,2.09-1.69,3.79-3.79,3.79h-12.7c-2.09,0-3.79-1.69-3.79-3.79v-87.67c0-2.09,1.69-3.79,3.79-3.79h22.04
			c1.56,0,2.96,0.96,3.53,2.41l22.19,56.99l22.19-56.99c0.57-1.45,1.97-2.41,3.53-2.41h22.18c2.09,0,3.79,1.69,3.79,3.79v87.67
			c0,2.09-1.69,3.79-3.79,3.79h-12.85c-2.09,0-3.79-1.69-3.79-3.79V429.39z"/>
	</g>
</g>
<g>
	<path class="st0" d="M134.01,497.21c-14.97,0-27.1-12.13-27.1-27.1V366.29c0-14.97,12.13-27.1,27.1-27.1
		c14.97,0,27.1,12.13,27.1,27.1v103.82C161.11,485.07,148.97,497.21,134.01,497.21z"/>
</g>
<g>
	<path class="st0" d="M134.01,248.58c-14.97,0-27.1-12.13-27.1-27.1v-92.24c0-14.97,12.13-27.1,27.1-27.1
		c14.97,0,27.1,12.13,27.1,27.1v92.24C161.11,236.44,148.97,248.58,134.01,248.58z"/>
</g>
<g>
	<path class="st0" d="M52.29,424.83c-14.97,0-27.1-12.13-27.1-27.1V221.46c0-14.97,12.13-27.1,27.1-27.1s27.1,12.13,27.1,27.1
		v176.27C79.39,412.7,67.26,424.83,52.29,424.83z"/>
</g>
</svg>
