<svg width="24" height="25" viewBox="0 0 24 25" fill="none" xmlns="http://www.w3.org/2000/svg">
<rect y="0.5" width="24" height="24" rx="12" fill="#FFADB5"/>
<path d="M19.2227 7.93768C18.6589 8.17803 18.0627 8.33691 17.4527 8.40939C18.0963 8.03152 18.5786 7.43707 18.8102 6.7363C18.2053 7.09013 17.5432 7.33942 16.8527 7.47334C16.3911 6.98142 15.7764 6.65397 15.105 6.54234C14.4336 6.43072 13.7436 6.54124 13.143 6.85657C12.5424 7.17191 12.0654 7.67421 11.7866 8.28471C11.5078 8.89521 11.4431 9.57937 11.6027 10.2299C10.3797 10.1691 9.18349 9.85618 8.09165 9.31143C6.99981 8.76669 6.03679 8.00231 5.26516 7.06797C4.99451 7.53243 4.8523 8.05843 4.85266 8.59365C4.8517 9.0907 4.97582 9.58027 5.21397 10.0188C5.45213 10.4573 5.79692 10.8311 6.21766 11.107C5.72864 11.0939 5.25007 10.9649 4.82266 10.7311V10.7679C4.82632 11.4644 5.07465 12.1382 5.52564 12.6754C5.97663 13.2126 6.6026 13.5802 7.29766 13.7161C7.0301 13.7961 6.75231 13.8383 6.47266 13.8414C6.27907 13.8392 6.08597 13.8219 5.89516 13.7898C6.09309 14.3889 6.47612 14.9124 6.99096 15.2876C7.5058 15.6628 8.12684 15.8709 8.76766 15.883C7.68556 16.7198 6.34957 17.1764 4.97266 17.1802C4.72196 17.181 4.47146 17.1663 4.22266 17.136C5.62848 18.028 7.26677 18.5015 8.94016 18.4995C10.0949 18.5113 11.2405 18.2969 12.31 17.8687C13.3795 17.4405 14.3514 16.8072 15.1691 16.0057C15.9867 15.2043 16.6336 14.2508 17.0721 13.2009C17.5105 12.1509 17.7317 11.0257 17.7227 9.89085C17.7227 9.76555 17.7227 9.63288 17.7227 9.50022C18.3112 9.06891 18.8188 8.54016 19.2227 7.93768Z" fill="#40147E"/>
</svg>
